<mxfile host="app.diagrams.net" modified="2024-03-14T11:42:43.012Z" agent="Mozilla/5.0 (Windows NT 10.0; Win64; x64) AppleWebKit/537.36 (KHTML, like Gecko) Chrome/122.0.0.0 Safari/537.36" etag="pbJ7DHMZeC-OdqkKSw1u" version="24.0.6" type="github">
  <diagram id="C5RBs43oDa-KdzZeNtuy" name="Page-1">
    <mxGraphModel dx="1500" dy="820" grid="1" gridSize="10" guides="1" tooltips="1" connect="1" arrows="1" fold="1" page="1" pageScale="1" pageWidth="827" pageHeight="1169" math="0" shadow="0">
      <root>
        <mxCell id="WIyWlLk6GJQsqaUBKTNV-0" />
        <mxCell id="WIyWlLk6GJQsqaUBKTNV-1" parent="WIyWlLk6GJQsqaUBKTNV-0" />
        <mxCell id="xR92AIgWYUAUaI7o_rEp-4" style="edgeStyle=orthogonalEdgeStyle;rounded=0;orthogonalLoop=1;jettySize=auto;html=1;exitX=1;exitY=0;exitDx=0;exitDy=0;entryX=0;entryY=0.5;entryDx=0;entryDy=0;fontColor=default;labelBackgroundColor=default;" edge="1" parent="WIyWlLk6GJQsqaUBKTNV-1" source="WIyWlLk6GJQsqaUBKTNV-3" target="WIyWlLk6GJQsqaUBKTNV-7">
          <mxGeometry relative="1" as="geometry">
            <mxPoint x="200" y="120" as="targetPoint" />
          </mxGeometry>
        </mxCell>
        <mxCell id="xR92AIgWYUAUaI7o_rEp-6" value="按方向鍵左右移動" style="edgeLabel;html=1;align=center;verticalAlign=middle;resizable=0;points=[];fontColor=default;labelBackgroundColor=default;" vertex="1" connectable="0" parent="xR92AIgWYUAUaI7o_rEp-4">
          <mxGeometry x="0.1707" y="3" relative="1" as="geometry">
            <mxPoint x="-3" y="-7" as="offset" />
          </mxGeometry>
        </mxCell>
        <mxCell id="xR92AIgWYUAUaI7o_rEp-26" style="edgeStyle=orthogonalEdgeStyle;rounded=0;orthogonalLoop=1;jettySize=auto;html=1;exitX=1;exitY=1;exitDx=0;exitDy=0;entryX=0;entryY=0.5;entryDx=0;entryDy=0;fontColor=default;labelBackgroundColor=default;" edge="1" parent="WIyWlLk6GJQsqaUBKTNV-1" source="WIyWlLk6GJQsqaUBKTNV-3" target="xR92AIgWYUAUaI7o_rEp-14">
          <mxGeometry relative="1" as="geometry" />
        </mxCell>
        <mxCell id="xR92AIgWYUAUaI7o_rEp-40" style="edgeStyle=orthogonalEdgeStyle;rounded=0;orthogonalLoop=1;jettySize=auto;html=1;exitX=0.5;exitY=1;exitDx=0;exitDy=0;entryX=0;entryY=0.5;entryDx=0;entryDy=0;" edge="1" parent="WIyWlLk6GJQsqaUBKTNV-1" source="WIyWlLk6GJQsqaUBKTNV-3" target="xR92AIgWYUAUaI7o_rEp-36">
          <mxGeometry relative="1" as="geometry" />
        </mxCell>
        <mxCell id="xR92AIgWYUAUaI7o_rEp-81" style="edgeStyle=orthogonalEdgeStyle;rounded=0;orthogonalLoop=1;jettySize=auto;html=1;exitX=0.75;exitY=1;exitDx=0;exitDy=0;entryX=0;entryY=0.5;entryDx=0;entryDy=0;" edge="1" parent="WIyWlLk6GJQsqaUBKTNV-1" source="WIyWlLk6GJQsqaUBKTNV-3" target="xR92AIgWYUAUaI7o_rEp-80">
          <mxGeometry relative="1" as="geometry" />
        </mxCell>
        <mxCell id="WIyWlLk6GJQsqaUBKTNV-3" value="遊戲開始" style="rounded=1;whiteSpace=wrap;html=1;fontSize=12;glass=0;strokeWidth=1;shadow=0;fillColor=#dae8fc;strokeColor=#6c8ebf;" parent="WIyWlLk6GJQsqaUBKTNV-1" vertex="1">
          <mxGeometry x="10" y="140" width="120" height="40" as="geometry" />
        </mxCell>
        <mxCell id="WIyWlLk6GJQsqaUBKTNV-7" value="飛船移動" style="rounded=1;whiteSpace=wrap;html=1;fontSize=12;glass=0;strokeWidth=1;shadow=0;fontColor=default;labelBackgroundColor=default;" parent="WIyWlLk6GJQsqaUBKTNV-1" vertex="1">
          <mxGeometry x="240" y="100" width="120" height="40" as="geometry" />
        </mxCell>
        <mxCell id="xR92AIgWYUAUaI7o_rEp-11" value="按空白鍵" style="edgeLabel;html=1;align=center;verticalAlign=middle;resizable=0;points=[];fontColor=default;labelBackgroundColor=default;" vertex="1" connectable="0" parent="WIyWlLk6GJQsqaUBKTNV-1">
          <mxGeometry x="168" y="190" as="geometry" />
        </mxCell>
        <mxCell id="xR92AIgWYUAUaI7o_rEp-17" style="edgeStyle=orthogonalEdgeStyle;rounded=0;orthogonalLoop=1;jettySize=auto;html=1;exitX=1;exitY=0.5;exitDx=0;exitDy=0;entryX=0;entryY=0.5;entryDx=0;entryDy=0;fontColor=default;labelBackgroundColor=default;" edge="1" parent="WIyWlLk6GJQsqaUBKTNV-1" source="xR92AIgWYUAUaI7o_rEp-14" target="xR92AIgWYUAUaI7o_rEp-16">
          <mxGeometry relative="1" as="geometry" />
        </mxCell>
        <mxCell id="xR92AIgWYUAUaI7o_rEp-14" value="發射子彈" style="rounded=1;whiteSpace=wrap;html=1;fontSize=12;glass=0;strokeWidth=1;shadow=0;fontColor=default;labelBackgroundColor=default;" vertex="1" parent="WIyWlLk6GJQsqaUBKTNV-1">
          <mxGeometry x="240" y="180" width="120" height="40" as="geometry" />
        </mxCell>
        <mxCell id="xR92AIgWYUAUaI7o_rEp-18" style="edgeStyle=orthogonalEdgeStyle;rounded=0;orthogonalLoop=1;jettySize=auto;html=1;exitX=1;exitY=0;exitDx=0;exitDy=0;fontColor=default;labelBackgroundColor=default;" edge="1" parent="WIyWlLk6GJQsqaUBKTNV-1" source="xR92AIgWYUAUaI7o_rEp-16">
          <mxGeometry relative="1" as="geometry">
            <mxPoint x="560" y="160" as="targetPoint" />
          </mxGeometry>
        </mxCell>
        <mxCell id="xR92AIgWYUAUaI7o_rEp-21" style="edgeStyle=orthogonalEdgeStyle;rounded=0;orthogonalLoop=1;jettySize=auto;html=1;exitX=1;exitY=1;exitDx=0;exitDy=0;fontColor=default;labelBackgroundColor=default;" edge="1" parent="WIyWlLk6GJQsqaUBKTNV-1" source="xR92AIgWYUAUaI7o_rEp-16">
          <mxGeometry relative="1" as="geometry">
            <mxPoint x="560" y="240" as="targetPoint" />
          </mxGeometry>
        </mxCell>
        <mxCell id="xR92AIgWYUAUaI7o_rEp-22" value="否" style="edgeLabel;html=1;align=center;verticalAlign=middle;resizable=0;points=[];fontColor=default;labelBackgroundColor=default;" vertex="1" connectable="0" parent="xR92AIgWYUAUaI7o_rEp-21">
          <mxGeometry x="-0.2158" y="-1" relative="1" as="geometry">
            <mxPoint x="5" y="9" as="offset" />
          </mxGeometry>
        </mxCell>
        <mxCell id="xR92AIgWYUAUaI7o_rEp-16" value="子彈到最頂端前&lt;div&gt;是否有碰到隕石&lt;/div&gt;" style="rhombus;whiteSpace=wrap;html=1;fontColor=default;labelBackgroundColor=default;" vertex="1" parent="WIyWlLk6GJQsqaUBKTNV-1">
          <mxGeometry x="400" y="160" width="140" height="80" as="geometry" />
        </mxCell>
        <mxCell id="xR92AIgWYUAUaI7o_rEp-20" value="是" style="text;html=1;align=center;verticalAlign=middle;resizable=0;points=[];autosize=1;strokeColor=none;fillColor=none;fontColor=default;labelBackgroundColor=default;" vertex="1" parent="WIyWlLk6GJQsqaUBKTNV-1">
          <mxGeometry x="520" y="158" width="40" height="30" as="geometry" />
        </mxCell>
        <mxCell id="xR92AIgWYUAUaI7o_rEp-24" value="自動消除" style="rounded=1;whiteSpace=wrap;html=1;fontSize=12;glass=0;strokeWidth=1;shadow=0;" vertex="1" parent="WIyWlLk6GJQsqaUBKTNV-1">
          <mxGeometry x="500" y="240" width="120" height="40" as="geometry" />
        </mxCell>
        <mxCell id="xR92AIgWYUAUaI7o_rEp-25" value="加分數&lt;div&gt;播放爆炸圖片與音效&lt;/div&gt;" style="rounded=1;whiteSpace=wrap;html=1;fontSize=12;glass=0;strokeWidth=1;shadow=0;fontColor=default;labelBackgroundColor=default;" vertex="1" parent="WIyWlLk6GJQsqaUBKTNV-1">
          <mxGeometry x="500" y="100" width="110" height="60" as="geometry" />
        </mxCell>
        <mxCell id="xR92AIgWYUAUaI7o_rEp-33" style="edgeStyle=orthogonalEdgeStyle;rounded=0;orthogonalLoop=1;jettySize=auto;html=1;exitX=1;exitY=0;exitDx=0;exitDy=0;" edge="1" parent="WIyWlLk6GJQsqaUBKTNV-1" source="xR92AIgWYUAUaI7o_rEp-36">
          <mxGeometry relative="1" as="geometry">
            <mxPoint x="280" y="720" as="targetPoint" />
          </mxGeometry>
        </mxCell>
        <mxCell id="xR92AIgWYUAUaI7o_rEp-34" style="edgeStyle=orthogonalEdgeStyle;rounded=0;orthogonalLoop=1;jettySize=auto;html=1;exitX=1;exitY=1;exitDx=0;exitDy=0;" edge="1" parent="WIyWlLk6GJQsqaUBKTNV-1" source="xR92AIgWYUAUaI7o_rEp-36">
          <mxGeometry relative="1" as="geometry">
            <mxPoint x="280" y="800" as="targetPoint" />
          </mxGeometry>
        </mxCell>
        <mxCell id="xR92AIgWYUAUaI7o_rEp-35" value="否" style="edgeLabel;html=1;align=center;verticalAlign=middle;resizable=0;points=[];" vertex="1" connectable="0" parent="xR92AIgWYUAUaI7o_rEp-34">
          <mxGeometry x="-0.2158" y="-1" relative="1" as="geometry">
            <mxPoint x="5" y="9" as="offset" />
          </mxGeometry>
        </mxCell>
        <mxCell id="xR92AIgWYUAUaI7o_rEp-36" value="飛船是否有碰到道具" style="rhombus;whiteSpace=wrap;html=1;" vertex="1" parent="WIyWlLk6GJQsqaUBKTNV-1">
          <mxGeometry x="120" y="720" width="140" height="80" as="geometry" />
        </mxCell>
        <mxCell id="xR92AIgWYUAUaI7o_rEp-37" value="是" style="text;html=1;align=center;verticalAlign=middle;resizable=0;points=[];autosize=1;strokeColor=none;fillColor=none;" vertex="1" parent="WIyWlLk6GJQsqaUBKTNV-1">
          <mxGeometry x="240" y="718" width="40" height="30" as="geometry" />
        </mxCell>
        <mxCell id="xR92AIgWYUAUaI7o_rEp-38" value="自動消除" style="rounded=1;whiteSpace=wrap;html=1;fontSize=12;glass=0;strokeWidth=1;shadow=0;" vertex="1" parent="WIyWlLk6GJQsqaUBKTNV-1">
          <mxGeometry x="220" y="800" width="120" height="40" as="geometry" />
        </mxCell>
        <mxCell id="xR92AIgWYUAUaI7o_rEp-53" style="edgeStyle=orthogonalEdgeStyle;rounded=0;orthogonalLoop=1;jettySize=auto;html=1;exitX=1;exitY=1;exitDx=0;exitDy=0;entryX=0;entryY=0.5;entryDx=0;entryDy=0;" edge="1" parent="WIyWlLk6GJQsqaUBKTNV-1" source="xR92AIgWYUAUaI7o_rEp-43" target="xR92AIgWYUAUaI7o_rEp-50">
          <mxGeometry relative="1" as="geometry" />
        </mxCell>
        <mxCell id="xR92AIgWYUAUaI7o_rEp-43" value="道具的類型" style="rhombus;whiteSpace=wrap;html=1;" vertex="1" parent="WIyWlLk6GJQsqaUBKTNV-1">
          <mxGeometry x="210" y="640" width="140" height="80" as="geometry" />
        </mxCell>
        <mxCell id="xR92AIgWYUAUaI7o_rEp-49" value="發射雙倍子彈(5秒)" style="rounded=1;whiteSpace=wrap;html=1;fontSize=12;glass=0;strokeWidth=1;shadow=0;" vertex="1" parent="WIyWlLk6GJQsqaUBKTNV-1">
          <mxGeometry x="350" y="590" width="110" height="60" as="geometry" />
        </mxCell>
        <mxCell id="xR92AIgWYUAUaI7o_rEp-50" value="加血量" style="rounded=1;whiteSpace=wrap;html=1;fontSize=12;glass=0;strokeWidth=1;shadow=0;" vertex="1" parent="WIyWlLk6GJQsqaUBKTNV-1">
          <mxGeometry x="350" y="718" width="110" height="60" as="geometry" />
        </mxCell>
        <mxCell id="xR92AIgWYUAUaI7o_rEp-52" value="&lt;span style=&quot;color: rgb(0, 0, 0); font-family: Helvetica; font-size: 12px; font-style: normal; font-variant-ligatures: normal; font-variant-caps: normal; font-weight: 400; letter-spacing: normal; orphans: 2; text-align: center; text-indent: 0px; text-transform: none; widows: 2; word-spacing: 0px; -webkit-text-stroke-width: 0px; white-space: normal; background-color: rgb(251, 251, 251); text-decoration-thickness: initial; text-decoration-style: initial; text-decoration-color: initial; display: inline !important; float: none;&quot;&gt;雙倍子彈&lt;/span&gt;" style="text;whiteSpace=wrap;html=1;" vertex="1" parent="WIyWlLk6GJQsqaUBKTNV-1">
          <mxGeometry x="290" y="600" width="80" height="40" as="geometry" />
        </mxCell>
        <mxCell id="xR92AIgWYUAUaI7o_rEp-54" style="edgeStyle=orthogonalEdgeStyle;rounded=0;orthogonalLoop=1;jettySize=auto;html=1;exitX=1;exitY=0;exitDx=0;exitDy=0;entryX=0.75;entryY=0.5;entryDx=0;entryDy=0;entryPerimeter=0;" edge="1" parent="WIyWlLk6GJQsqaUBKTNV-1" source="xR92AIgWYUAUaI7o_rEp-43" target="xR92AIgWYUAUaI7o_rEp-52">
          <mxGeometry relative="1" as="geometry" />
        </mxCell>
        <mxCell id="xR92AIgWYUAUaI7o_rEp-56" value="&lt;div style=&quot;text-align: center;&quot;&gt;&lt;span style=&quot;background-color: initial;&quot;&gt;補包&lt;/span&gt;&lt;/div&gt;" style="text;whiteSpace=wrap;html=1;" vertex="1" parent="WIyWlLk6GJQsqaUBKTNV-1">
          <mxGeometry x="314" y="748" width="80" height="40" as="geometry" />
        </mxCell>
        <mxCell id="xR92AIgWYUAUaI7o_rEp-57" style="edgeStyle=orthogonalEdgeStyle;rounded=0;orthogonalLoop=1;jettySize=auto;html=1;exitX=1;exitY=0;exitDx=0;exitDy=0;" edge="1" parent="WIyWlLk6GJQsqaUBKTNV-1" source="xR92AIgWYUAUaI7o_rEp-60">
          <mxGeometry relative="1" as="geometry">
            <mxPoint x="457" y="432" as="targetPoint" />
          </mxGeometry>
        </mxCell>
        <mxCell id="xR92AIgWYUAUaI7o_rEp-58" style="edgeStyle=orthogonalEdgeStyle;rounded=0;orthogonalLoop=1;jettySize=auto;html=1;exitX=1;exitY=1;exitDx=0;exitDy=0;" edge="1" parent="WIyWlLk6GJQsqaUBKTNV-1" source="xR92AIgWYUAUaI7o_rEp-60">
          <mxGeometry relative="1" as="geometry">
            <mxPoint x="457" y="512" as="targetPoint" />
          </mxGeometry>
        </mxCell>
        <mxCell id="xR92AIgWYUAUaI7o_rEp-59" value="否" style="edgeLabel;html=1;align=center;verticalAlign=middle;resizable=0;points=[];" vertex="1" connectable="0" parent="xR92AIgWYUAUaI7o_rEp-58">
          <mxGeometry x="-0.2158" y="-1" relative="1" as="geometry">
            <mxPoint x="5" y="9" as="offset" />
          </mxGeometry>
        </mxCell>
        <mxCell id="xR92AIgWYUAUaI7o_rEp-60" value="是否已經沒有血量" style="rhombus;whiteSpace=wrap;html=1;" vertex="1" parent="WIyWlLk6GJQsqaUBKTNV-1">
          <mxGeometry x="297" y="432" width="140" height="80" as="geometry" />
        </mxCell>
        <mxCell id="xR92AIgWYUAUaI7o_rEp-61" value="是" style="text;html=1;align=center;verticalAlign=middle;resizable=0;points=[];autosize=1;strokeColor=none;fillColor=none;" vertex="1" parent="WIyWlLk6GJQsqaUBKTNV-1">
          <mxGeometry x="417" y="430" width="40" height="30" as="geometry" />
        </mxCell>
        <mxCell id="xR92AIgWYUAUaI7o_rEp-62" value="沒事" style="rounded=1;whiteSpace=wrap;html=1;fontSize=12;glass=0;strokeWidth=1;shadow=0;" vertex="1" parent="WIyWlLk6GJQsqaUBKTNV-1">
          <mxGeometry x="397" y="512" width="120" height="40" as="geometry" />
        </mxCell>
        <mxCell id="xR92AIgWYUAUaI7o_rEp-76" style="edgeStyle=orthogonalEdgeStyle;rounded=0;orthogonalLoop=1;jettySize=auto;html=1;exitX=1;exitY=1;exitDx=0;exitDy=0;entryX=0;entryY=0.5;entryDx=0;entryDy=0;" edge="1" parent="WIyWlLk6GJQsqaUBKTNV-1" source="xR92AIgWYUAUaI7o_rEp-64" target="xR92AIgWYUAUaI7o_rEp-66">
          <mxGeometry relative="1" as="geometry">
            <mxPoint x="492" y="452" as="targetPoint" />
          </mxGeometry>
        </mxCell>
        <mxCell id="xR92AIgWYUAUaI7o_rEp-77" style="edgeStyle=orthogonalEdgeStyle;rounded=0;orthogonalLoop=1;jettySize=auto;html=1;exitX=1;exitY=0;exitDx=0;exitDy=0;entryX=0;entryY=0.5;entryDx=0;entryDy=0;" edge="1" parent="WIyWlLk6GJQsqaUBKTNV-1" source="xR92AIgWYUAUaI7o_rEp-64" target="xR92AIgWYUAUaI7o_rEp-65">
          <mxGeometry relative="1" as="geometry">
            <mxPoint x="513" y="332" as="targetPoint" />
            <Array as="points">
              <mxPoint x="492" y="342" />
            </Array>
          </mxGeometry>
        </mxCell>
        <mxCell id="xR92AIgWYUAUaI7o_rEp-64" value="是否還有命&lt;div&gt;(有三條命)&lt;/div&gt;" style="rhombus;whiteSpace=wrap;html=1;" vertex="1" parent="WIyWlLk6GJQsqaUBKTNV-1">
          <mxGeometry x="387" y="352" width="140" height="80" as="geometry" />
        </mxCell>
        <mxCell id="xR92AIgWYUAUaI7o_rEp-65" value="扣一條命&lt;div&gt;血量回滿&lt;/div&gt;" style="rounded=1;whiteSpace=wrap;html=1;fontSize=12;glass=0;strokeWidth=1;shadow=0;" vertex="1" parent="WIyWlLk6GJQsqaUBKTNV-1">
          <mxGeometry x="533" y="312" width="110" height="60" as="geometry" />
        </mxCell>
        <mxCell id="xR92AIgWYUAUaI7o_rEp-66" value="結束遊戲" style="rounded=1;whiteSpace=wrap;html=1;fontSize=12;glass=0;strokeWidth=1;shadow=0;" vertex="1" parent="WIyWlLk6GJQsqaUBKTNV-1">
          <mxGeometry x="527" y="422" width="110" height="60" as="geometry" />
        </mxCell>
        <mxCell id="xR92AIgWYUAUaI7o_rEp-78" value="是" style="text;html=1;align=center;verticalAlign=middle;resizable=0;points=[];autosize=1;strokeColor=none;fillColor=none;" vertex="1" parent="WIyWlLk6GJQsqaUBKTNV-1">
          <mxGeometry x="483" y="310" width="40" height="30" as="geometry" />
        </mxCell>
        <mxCell id="xR92AIgWYUAUaI7o_rEp-79" value="否" style="text;html=1;align=center;verticalAlign=middle;resizable=0;points=[];autosize=1;strokeColor=none;fillColor=none;" vertex="1" parent="WIyWlLk6GJQsqaUBKTNV-1">
          <mxGeometry x="483" y="450" width="40" height="30" as="geometry" />
        </mxCell>
        <mxCell id="xR92AIgWYUAUaI7o_rEp-85" style="edgeStyle=orthogonalEdgeStyle;rounded=0;orthogonalLoop=1;jettySize=auto;html=1;exitX=1;exitY=0.5;exitDx=0;exitDy=0;entryX=0;entryY=0.5;entryDx=0;entryDy=0;" edge="1" parent="WIyWlLk6GJQsqaUBKTNV-1" source="xR92AIgWYUAUaI7o_rEp-80" target="xR92AIgWYUAUaI7o_rEp-60">
          <mxGeometry relative="1" as="geometry" />
        </mxCell>
        <mxCell id="xR92AIgWYUAUaI7o_rEp-80" value="飛船碰到隕石&lt;br&gt;扣除血量" style="rounded=1;whiteSpace=wrap;html=1;fontSize=12;glass=0;strokeWidth=1;shadow=0;" vertex="1" parent="WIyWlLk6GJQsqaUBKTNV-1">
          <mxGeometry x="120" y="458" width="120" height="40" as="geometry" />
        </mxCell>
        <mxCell id="xR92AIgWYUAUaI7o_rEp-88" value="" style="endArrow=none;dashed=1;html=1;rounded=0;" edge="1" parent="WIyWlLk6GJQsqaUBKTNV-1">
          <mxGeometry width="50" height="50" relative="1" as="geometry">
            <mxPoint x="110" y="300" as="sourcePoint" />
            <mxPoint x="820" y="300" as="targetPoint" />
          </mxGeometry>
        </mxCell>
        <mxCell id="xR92AIgWYUAUaI7o_rEp-89" value="" style="endArrow=none;dashed=1;html=1;rounded=0;" edge="1" parent="WIyWlLk6GJQsqaUBKTNV-1">
          <mxGeometry width="50" height="50" relative="1" as="geometry">
            <mxPoint x="130" y="585" as="sourcePoint" />
            <mxPoint x="820" y="585" as="targetPoint" />
          </mxGeometry>
        </mxCell>
      </root>
    </mxGraphModel>
  </diagram>
</mxfile>
